<svg height="512" viewBox="0 0 64 64" width="512" xmlns="http://www.w3.org/2000/svg"><g id="Robot-2" data-name="Robot"><path d="m18 9h28v10h-28z" fill="#ff9811"/><path d="m30 57v4h-10v-4h3 6z" fill="#aa6100"/><path d="m23 47h6v10h-6z" fill="#cc7400"/><path d="m35 47h6v10h-6z" fill="#cc7400"/><path d="m35 57h6 3v4h-10v-4z" fill="#aa6100"/><circle cx="55" cy="12" fill="#ee8700" r="2"/><circle cx="9" cy="12" fill="#ee8700" r="2"/><path d="m29 19h6v4h-6z" fill="#cc7400"/><path d="m20 23h24v24h-24z" fill="#ee8700"/><path d="m30 31h4 2v2 3l-1 1-1 1-1 1h-3-2v-2-4-2z" fill="#ff5023"/><path d="m43 6v3h-6v-3h1 4z" fill="#ee8700"/><circle cx="40" cy="14" fill="#ff5023" r="2"/><circle cx="24" cy="14" fill="#ff5023" r="2"/><path d="m27 6v3h-6v-3h1 4z" fill="#ee8700"/><path d="m9 14a2.006 2.006 0 0 0 -2 2v10h4v-10a2.006 2.006 0 0 0 -2-2z" fill="#ffa733"/><path d="m11.23 26h-.23v4h.23 8.77v-4z" fill="#ffa733"/><path d="m11.23 26a3 3 0 0 1 -2.23 5 3 3 0 0 1 -3-3 3 3 0 0 1 5-2.23 2.5 2.5 0 0 1 .23.23z" fill="#ee8700"/><path d="m52.77 26h-.77-8v4h8 .77.23v-4z" fill="#ffa733"/><path d="m55 14a2.006 2.006 0 0 0 -2 2v10h4v-10a2.006 2.006 0 0 0 -2-2z" fill="#ffa733"/><path d="m57 25.77a2.94 2.94 0 0 1 1 2.23 3 3 0 0 1 -3 3 3 3 0 0 1 -2.23-5 2.5 2.5 0 0 1 .23-.23 2.982 2.982 0 0 1 4 0z" fill="#ee8700"/><g fill="#aa6100"><path d="m29 19h6v2h-6z"/><path d="m23 47h6v2h-6z"/><path d="m35 47h6v2h-6z"/></g><path d="m24 11a3 3 0 1 0 3 3 3 3 0 0 0 -3-3zm0 4a1 1 0 1 1 1-1 1 1 0 0 1 -1 1z"/><path d="m40 11a3 3 0 1 0 3 3 3 3 0 0 0 -3-3zm0 4a1 1 0 1 1 1-1 1 1 0 0 1 -1 1z"/><path d="m29 15h6v2h-6z"/><path d="m59 8v-4h-2v3.465l-2 1.335-2-1.335v-3.465h-2v4a1 1 0 0 0 .445.832l1.5 1a2.965 2.965 0 0 0 -.165 4.168 2.981 2.981 0 0 0 -.78 2v9h-7v-2a1 1 0 0 0 -1-1h-8v-2h10a1 1 0 0 0 1-1v-10a1 1 0 0 0 -1-1h-2v-2a1 1 0 0 0 -1-1v-3h-2v3h-2v-3h-2v3a1 1 0 0 0 -1 1v2h-8v-2a1 1 0 0 0 -1-1v-3h-2v3h-2v-3h-2v3a1 1 0 0 0 -1 1v2h-2a1 1 0 0 0 -1 1v10a1 1 0 0 0 1 1h10v2h-8a1 1 0 0 0 -1 1v2h-7v-9a2.981 2.981 0 0 0 -.78-2 2.965 2.965 0 0 0 -.161-4.171l1.5-1a1 1 0 0 0 .441-.829v-4h-2v3.465l-2 1.335-2-1.335v-3.465h-2v4a1 1 0 0 0 .445.832l1.5 1a2.965 2.965 0 0 0 -.165 4.168 2.981 2.981 0 0 0 -.78 2v9.382a3.98 3.98 0 0 0 5.618 5.618h7.382v16a1 1 0 0 0 1 1h2v8h-2a1 1 0 0 0 -1 1v4a1 1 0 0 0 1 1h10a1 1 0 0 0 1-1v-4a1 1 0 0 0 -1-1v-8h4v8a1 1 0 0 0 -1 1v4a1 1 0 0 0 1 1h10a1 1 0 0 0 1-1v-4a1 1 0 0 0 -1-1h-2v-8h2a1 1 0 0 0 1-1v-16h7.382a3.98 3.98 0 0 0 5.618-5.618v-9.382a2.981 2.981 0 0 0 -.78-2 2.965 2.965 0 0 0 -.161-4.171l1.5-1a1 1 0 0 0 .441-.829zm-50 7a1 1 0 0 1 1 1v8.142a3.939 3.939 0 0 0 -1-.142 3.939 3.939 0 0 0 -1 .142v-8.142a1 1 0 0 1 1-1zm-1-3a1 1 0 1 1 1 1 1 1 0 0 1 -1-1zm1 18a2 2 0 1 1 2-2 2 2 0 0 1 -2 2zm3.858-1a3.592 3.592 0 0 0 0-2h6.142v2zm25.142-22h4v1h-4zm-16 0h4v1h-4zm-3 3h26v8h-26zm11 10h4v2h-4zm-1 40h-8v-2h8zm-1-4h-4v-8h4zm15 4h-8v-2h8zm-3-4h-4v-8h4zm3-10h-22v-22h22zm12-33a1 1 0 1 1 1-1 1 1 0 0 1 -1 1zm1 3v8.142a3.592 3.592 0 0 0 -2 0v-8.142a1 1 0 0 1 2 0zm-11 11h6.142a3.592 3.592 0 0 0 0 2h-6.142zm10 3a2 2 0 1 1 2-2 2 2 0 0 1 -2 2z"/><path d="m27 39a1 1 0 0 0 1 1h1v2h2v-2h2v2h2v-3.584l.415-.416h3.585v-2h-2v-2h2v-2h-2v-1a1 1 0 0 0 -1-1h-1v-2h-2v2h-2v-2h-2v2h-1a1 1 0 0 0 -1 1v1h-2v2h2v2h-2v2h2zm2-7h6v3.586l-2.412 2.414h-3.588z"/><path d="m31 34h2v2h-2z"/></g></svg>