<svg height="512" viewBox="0 0 64 64" width="512" 
    xmlns="http://www.w3.org/2000/svg">
    <g id="Robot-2" data-name="Robot">
        <path d="m9 11a1 1 0 0 1 -.555-.168l-3-2a1 1 0 0 1 -.445-.832v-4h2v3.465l2 1.335 2-1.333v-3.467h2v4a1 1 0 0 1 -.445.832l-3 2a1 1 0 0 1 -.555.168z" fill="#cc740099"/>
        <path d="m55 11a1 1 0 0 1 -.555-.168l-3-2a1 1 0 0 1 -.445-.832v-4h2v3.465l2 1.335 2-1.333v-3.467h2v4a1 1 0 0 1 -.445.832l-3 2a1 1 0 0 1 -.555.168z" fill="#cc740099"/>
        <path d="m18 9h28v10h-28z" fill="#ff981199"/>
        <path d="m30 57v4h-10v-4h3 6z" fill="#aa610099"/>
        <path d="m23 47h6v10h-6z" fill="#cc740099"/>
        <path d="m35 47h6v10h-6z" fill="#cc740099"/>
        <path d="m35 57h6 3v4h-10v-4z" fill="#aa610099"/>
        <circle cx="55" cy="12" fill="#ee870099" r="2"/>
        <circle cx="9" cy="12" fill="#ee870099" r="2"/>
        <path d="m29 19h6v4h-6z" fill="#cc740099"/>
        <path d="m20 23h24v24h-24z" fill="#ee870099"/>
        <path d="m30 31h4 2v2 3l-1 1-1 1-1 1h-3-2v-2-4-2z" fill="#ff502399"/>
        <path d="m43 6v3h-6v-3h1 4z" fill="#ee870099"/>
        <circle cx="40" cy="14" fill="#ff502399" r="2"/>
        <circle cx="24" cy="14" fill="#ff502399" r="2"/>
        <path d="m27 6v3h-6v-3h1 4z" fill="#ee870099"/>
        <path d="m9 14a2.006 2.006 0 0 0 -2 2v10h4v-10a2.006 2.006 0 0 0 -2-2z" fill="#ffa73399"/>
        <path d="m11.23 26h-.23v4h.23 8.77v-4z" fill="#ffa73399"/>
        <path d="m11.23 26a3 3 0 0 1 -2.23 5 3 3 0 0 1 -3-3 3 3 0 0 1 5-2.23 2.5 2.5 0 0 1 .23.23z" fill="#ee870099"/>
        <path d="m52.77 26h-.77-8v4h8 .77.23v-4z" fill="#ffa73399"/>
        <path d="m55 14a2.006 2.006 0 0 0 -2 2v10h4v-10a2.006 2.006 0 0 0 -2-2z" fill="#ffa73399"/>
        <path d="m57 25.77a2.94 2.94 0 0 1 1 2.23 3 3 0 0 1 -3 3 3 3 0 0 1 -2.23-5 2.5 2.5 0 0 1 .23-.23 2.982 2.982 0 0 1 4 0z" fill="#ee870099"/>
        <path d="m29 19h6v2h-6z" fill="#aa610099"/>
        <path d="m23 47h6v2h-6z" fill="#aa610099"/>
        <path d="m35 47h6v2h-6z" fill="#aa610099"/>
        <path d="m21 2h2v4h-2z" fill="#cc740099"/>
        <path d="m25 2h2v4h-2z" fill="#cc740099"/>
        <path d="m37 2h2v4h-2z" fill="#cc740099"/>
        <path d="m41 2h2v4h-2z" fill="#cc740099"/>
        <path d="m29 15h6v2h-6z" fill="#ee870099"/>
        <g fill="#ff5023">
            <path d="m33 28h2v3h-2z"/>
            <path d="m29 28h2v3h-2z"/>
            <path d="m33 38h2v4h-2z"/>
            <path d="m29 39h2v3h-2z"/>
            <path d="m36 32h3v2h-3z"/>
            <path d="m35 36h4v2h-4z"/>
            <path d="m25 32h3v2h-3z"/>
            <path d="m25 36h3v2h-3z"/>
        </g>
        <path d="m31 34h2v2h-2z" fill="#ed1c2499"/>
        <path d="m33 40h-5a1 1 0 0 1 -1-1v-8a1 1 0 0 1 1-1h8a1 1 0 0 1 1 1v5a1 1 0 0 1 -.292.707l-3 3a1 1 0 0 1 -.708.293zm-4-2h3.588l2.412-2.414v-3.586h-6z" fill="#ed1c2499"/>
    </g>
</svg>